<?xml version="1.0" encoding="UTF-8"?>
<svg width="34px" height="35px" viewBox="0 0 34 35" version="1.1" xmlns="http://www.w3.org/2000/svg" xmlns:xlink="http://www.w3.org/1999/xlink">
    <!-- Generator: Sketch 53 (72520) - https://sketchapp.com -->
    <title>cim</title>
    <desc>Created with Sketch.</desc>
    <g id="cim" stroke="none" stroke-width="1" fill="none" fill-rule="evenodd">
        <g id="Group" transform="translate(17.644848, 17.570022) rotate(-35.000000) translate(-17.644848, -17.570022) translate(1.618532, 3.070022)" fill="#FFFFFF" fill-rule="nonzero">
            <g id="Group-2" transform="translate(0.431856, 0.105244)">
                <g id="006-campaign" transform="translate(1.495710, 0.742569)">
                    <path d="M23.2151545,21.9505562 C23.5305931,21.9505562 23.7863067,21.6948427 23.7863067,21.379404 L23.7863067,15.006297 L23.8767391,15.006297 C26.1281826,15.006297 27.9533382,13.1811414 27.9533382,10.9296979 C27.9533382,8.67825443 26.1281826,6.85309886 23.8767391,6.85309886 L23.7863067,6.85309886 L23.7863067,0.810308232 C23.786332,0.620742747 23.6923018,0.443516249 23.5353202,0.33725321 C23.3783385,0.230990172 23.1788624,0.209538209 23.0028762,0.279993383 L9.87722674,5.53088144 L3.37332588,5.53088144 C1.59770683,5.53287493 0.158780376,6.97180138 0.156786888,8.74742043 L0.156786888,13.4432437 C0.154506243,14.6849416 0.869755244,15.8161952 1.99247016,16.3466009 L3.75561711,22.7435059 C4.05503094,23.8295442 4.91109525,24.6733496 6.00133892,24.9570688 C7.09158258,25.2407879 8.25037165,24.9213172 9.04120149,24.118998 C9.83203133,23.3166789 10.1347561,22.1534028 9.83534225,21.0673645 L8.62088221,16.6597827 L9.87741713,16.6597827 L23.0028762,21.9097188 C23.0704009,21.9366862 23.142444,21.9505456 23.2151545,21.9505562 Z M23.8767391,7.99540333 C25.4973053,7.99540333 26.8110337,9.30913177 26.8110337,10.9296979 C26.8110337,12.5502641 25.4973053,13.8639925 23.8767391,13.8639925 L23.7863067,13.8639925 L23.7863067,7.99540333 L23.8767391,7.99540333 Z M9.41611651,15.5174782 L8.44230195,15.5174782 L8.44230195,6.67318591 L9.41611651,6.67318591 L9.41611651,15.5174782 Z M1.29909135,13.4432437 L1.29909135,8.74742043 C1.3004028,7.602396 2.22830144,6.67449735 3.37332588,6.67318591 L7.29999748,6.67318591 L7.29999748,15.5174788 L3.37332588,15.5174782 C2.82308078,15.5178827 2.29525607,15.2994778 1.90617392,14.9103957 C1.51709178,14.5213135 1.29868687,13.9934888 1.29909135,13.4432437 Z M7.3296974,23.8445922 C6.81556057,23.9864724 6.26611503,23.9182214 5.802316,23.654864 C5.33851697,23.3915065 4.99838561,22.9546321 4.85679861,22.4404145 L3.26242716,16.6554991 C3.29945686,16.6567366 3.33610579,16.6597827 3.37332588,16.6597827 L7.4361221,16.6597827 L8.73406555,21.3711223 C9.0278479,22.441778 8.39963958,23.5482218 7.3296974,23.8445922 L7.3296974,23.8445922 Z M22.6440022,20.5358121 L10.558421,15.7018652 L10.558421,6.48870373 L22.6440022,1.65399527 L22.6440022,20.5358121 Z" id="Shape"></path>
                </g>
            </g>
        </g>
    </g>
</svg>