<?xml version="1.0" encoding="UTF-8"?>
<svg width="34px" height="36px" viewBox="0 0 34 36" version="1.1" xmlns="http://www.w3.org/2000/svg" xmlns:xlink="http://www.w3.org/1999/xlink">
    <!-- Generator: Sketch 53 (72520) - https://sketchapp.com -->
    <title>cmdm</title>
    <desc>Created with Sketch.</desc>
    <g id="cmdm" stroke="none" stroke-width="1" fill="none" fill-rule="evenodd">
        <g id="022-database" transform="translate(3.250000, 3.500000)" fill="#FFFFFF" fill-rule="nonzero">
            <path d="M27.116,27.7395 L24.1315,24.618 C25.004,23.659 25.5415,22.389 25.5415,20.993 C25.5415,18.0165 23.12,15.595 20.1435,15.595 C17.167,15.595 14.7455,18.0165 14.7455,20.993 C14.7455,23.9695 17.167,26.391 20.1435,26.391 C21.3645,26.391 22.488,25.979 23.3935,25.293 L26.3935,28.431 C26.4915,28.5335 26.623,28.5855 26.755,28.5855 C26.8795,28.5855 27.0035,28.5395 27.1005,28.447 C27.3,28.2555 27.307,27.939 27.116,27.7395 Z M15.7455,20.9925 C15.7455,18.5675 17.7185,16.5945 20.1435,16.5945 C22.5685,16.5945 24.5415,18.5675 24.5415,20.9925 C24.5415,23.4175 22.5685,25.3905 20.1435,25.3905 C17.7185,25.3905 15.7455,23.4175 15.7455,20.9925 Z" id="Shape"></path>
            <path d="M12.83,20.5 C12.4165,20.5 12.0115,20.492 11.614,20.478 C11.371,20.469 11.1365,20.4535 10.8995,20.4395 C10.753,20.431 10.602,20.4255 10.458,20.415 C10.143,20.3925 9.837,20.363 9.5345,20.3315 C9.4775,20.3255 9.418,20.3215 9.3615,20.3155 C9.015,20.2775 8.6775,20.234 8.3485,20.186 C8.34,20.185 8.3315,20.184 8.323,20.1825 C6.6305,19.9325 5.178,19.551 4.0425,19.098 C4.0365,19.096 4.0305,19.0935 4.0245,19.091 C3.815,19.007 3.6185,18.92 3.4315,18.8315 C3.41,18.821 3.387,18.811 3.3655,18.8005 C3.1975,18.7195 3.042,18.6365 2.893,18.552 C2.858,18.532 2.821,18.5125 2.787,18.492 C2.6575,18.416 2.5395,18.3385 2.4265,18.2605 C2.3835,18.2305 2.339,18.2005 2.298,18.1705 C2.2025,18.1 2.117,18.029 2.035,17.9575 C1.9905,17.918 1.946,17.879 1.905,17.8395 C1.838,17.7745 1.779,17.709 1.7235,17.6435 C1.6845,17.5975 1.647,17.551 1.614,17.505 C1.57,17.4435 1.5325,17.382 1.499,17.3205 C1.472,17.271 1.448,17.2215 1.4275,17.172 C1.403,17.1115 1.3835,17.051 1.3695,16.991 C1.3505,16.9115 1.33,16.8305 1.33,16.75 L1.33,12.6465 C1.344,12.6595 1.3615,12.672 1.376,12.685 C1.4855,12.7805 1.596,12.876 1.721,12.968 C3.6045,14.393 7.371,15.5 12.83,15.5 C18.2665,15.5 22.023,14.402 23.9145,12.986 C24.0655,12.876 24.2015,12.7625 24.3295,12.647 C24.3295,12.647 24.3295,12.647 24.3295,12.647 L24.3295,15.0005 C24.3295,15.277 24.553,15.5005 24.8295,15.5005 C25.106,15.5005 25.3295,15.277 25.3295,15.0005 L25.3295,11.0005 L25.3295,10.7505 L25.3295,4.7505 L25.3295,4.5 C25.3295,4.409 25.2985,4.3285 25.2565,4.255 C24.6785,2.11 20.3685,0 12.83,0 C5.2915,0 0.982,2.11 0.4035,4.255 C0.361,4.3285 0.33,4.409 0.33,4.5 L0.33,4.75 L0.33,10.75 L0.33,11 L0.33,16.75 L0.33,17 L0.33,23 C0.33,23.0805 0.351,23.1565 0.3875,23.224 C0.957,25.6405 5.733,27.064 10.2925,27.406 C10.305,27.407 10.318,27.4075 10.3305,27.4075 C10.59,27.4075 10.809,27.208 10.8285,26.945 C10.849,26.6695 10.643,26.4295 10.3675,26.409 C4.8105,25.992 1.5725,24.3 1.346,22.919 C1.342,22.8965 1.3365,22.875 1.33,22.8535 L1.33,18.6465 C1.344,18.6595 1.3615,18.672 1.376,18.685 C1.4855,18.7805 1.596,18.876 1.721,18.968 C3.6045,20.393 7.371,21.5 12.83,21.5 C13.1065,21.5 13.33,21.2765 13.33,21 C13.33,20.7235 13.1065,20.5 12.83,20.5 Z M1.631,6.8985 C1.781,7.0165 1.943,7.133 2.1185,7.2465 C2.155,7.27 2.196,7.293 2.234,7.3165 C2.381,7.408 2.5365,7.4975 2.7,7.5855 C2.7605,7.618 2.821,7.65 2.884,7.682 C3.0665,7.775 3.258,7.865 3.4595,7.953 C3.4925,7.9675 3.5225,7.9825 3.5555,7.9965 C3.79,8.096 4.039,8.191 4.2985,8.2825 C4.37,8.308 4.445,8.332 4.5185,8.357 C4.7245,8.4265 4.9375,8.493 5.158,8.5575 C5.2375,8.5805 5.3155,8.6045 5.397,8.627 C5.6895,8.708 5.9915,8.785 6.3085,8.856 C6.352,8.866 6.399,8.8745 6.443,8.884 C6.7225,8.945 7.0125,9.0015 7.3105,9.054 C7.4115,9.072 7.514,9.089 7.617,9.106 C7.9005,9.1525 8.1925,9.1955 8.492,9.2345 C8.569,9.2445 8.643,9.2555 8.7205,9.2655 C9.0925,9.3105 9.477,9.349 9.873,9.382 C9.9705,9.39 10.072,9.396 10.171,9.403 C10.4875,9.426 10.811,9.445 11.142,9.46 C11.2625,9.4655 11.3825,9.471 11.5055,9.475 C11.937,9.49 12.3755,9.5 12.8305,9.5 C13.2855,9.5 13.7245,9.4895 14.1555,9.475 C14.278,9.471 14.398,9.465 14.519,9.46 C14.85,9.445 15.1735,9.426 15.49,9.403 C15.589,9.3955 15.6905,9.39 15.788,9.382 C16.1835,9.3495 16.5685,9.3105 16.9405,9.2655 C17.0185,9.256 17.092,9.2445 17.169,9.2345 C17.4685,9.1955 17.76,9.1525 18.044,9.106 C18.147,9.089 18.2495,9.072 18.3505,9.054 C18.6485,9.0015 18.9385,8.945 19.218,8.884 C19.262,8.8745 19.309,8.866 19.3525,8.856 C19.6695,8.785 19.9715,8.708 20.264,8.627 C20.3455,8.6045 20.4235,8.581 20.503,8.5575 C20.7235,8.4935 20.9365,8.4265 21.1425,8.357 C21.216,8.332 21.291,8.308 21.3625,8.2825 C21.6215,8.1905 21.871,8.0955 22.1055,7.9965 C22.139,7.9825 22.169,7.967 22.2015,7.953 C22.403,7.865 22.5945,7.775 22.777,7.682 C22.8395,7.65 22.9005,7.618 22.961,7.5855 C23.1245,7.498 23.28,7.4085 23.427,7.3165 C23.465,7.293 23.506,7.27 23.5425,7.2465 C23.718,7.133 23.88,7.017 24.03,6.8985 C24.0675,6.8685 24.101,6.8385 24.137,6.8085 C24.202,6.7545 24.2705,6.701 24.3305,6.6465 L24.3305,10.75 C24.3305,10.8305 24.31,10.9115 24.291,10.9925 C24.277,11.053 24.2575,11.113 24.233,11.1735 C24.213,11.223 24.1885,11.2725 24.1615,11.322 C24.128,11.3835 24.0905,11.445 24.0465,11.5065 C24.0135,11.5525 23.976,11.599 23.937,11.645 C23.8815,11.7105 23.8225,11.776 23.7555,11.841 C23.715,11.8805 23.6705,11.9195 23.6255,11.959 C23.5435,12.0305 23.458,12.1015 23.3625,12.172 C23.3215,12.2025 23.2775,12.232 23.234,12.262 C23.121,12.34 23.003,12.4175 22.8735,12.4935 C22.8395,12.514 22.803,12.5335 22.7675,12.5535 C22.619,12.6375 22.463,12.7205 22.295,12.802 C22.2735,12.8125 22.251,12.8225 22.229,12.833 C22.0415,12.9215 21.8455,13.0085 21.636,13.0925 C21.63,13.095 21.624,13.097 21.618,13.0995 C20.4825,13.553 19.03,13.9345 17.3375,14.184 C17.329,14.185 17.3205,14.186 17.312,14.1875 C16.983,14.236 16.6455,14.2795 16.299,14.317 C16.2425,14.323 16.183,14.327 16.126,14.333 C15.8235,14.3645 15.517,14.3935 15.2025,14.4165 C15.0585,14.427 14.9075,14.4325 14.761,14.441 C14.524,14.455 14.2895,14.4705 14.0465,14.4795 C13.6485,14.492 13.2435,14.5 12.83,14.5 C12.4165,14.5 12.0115,14.492 11.614,14.478 C11.371,14.469 11.1365,14.4535 10.8995,14.4395 C10.753,14.431 10.602,14.4255 10.458,14.415 C10.143,14.3925 9.837,14.363 9.5345,14.3315 C9.4775,14.3255 9.418,14.3215 9.3615,14.3155 C9.015,14.2775 8.6775,14.234 8.3485,14.186 C8.34,14.185 8.3315,14.184 8.323,14.1825 C6.6305,13.9325 5.178,13.551 4.0425,13.098 C4.0365,13.096 4.0305,13.0935 4.0245,13.091 C3.815,13.007 3.6185,12.92 3.4315,12.8315 C3.41,12.821 3.387,12.811 3.3655,12.8005 C3.1975,12.7195 3.042,12.6365 2.893,12.552 C2.858,12.532 2.821,12.5125 2.787,12.492 C2.6575,12.416 2.5395,12.3385 2.4265,12.2605 C2.3835,12.2305 2.339,12.2005 2.298,12.1705 C2.2025,12.1 2.117,12.029 2.035,11.9575 C1.9905,11.918 1.946,11.879 1.905,11.8395 C1.838,11.7745 1.779,11.709 1.7235,11.6435 C1.6845,11.5975 1.647,11.551 1.614,11.505 C1.57,11.4435 1.5325,11.382 1.499,11.3205 C1.472,11.271 1.448,11.2215 1.4275,11.172 C1.403,11.1115 1.3835,11.051 1.3695,10.991 C1.3505,10.9115 1.33,10.8305 1.33,10.75 L1.33,6.6465 C1.39,6.701 1.4585,6.7545 1.5235,6.8085 C1.5595,6.8385 1.593,6.8685 1.631,6.8985 Z M12.83,1 C19.6075,1 24.33,2.976 24.33,4.75 C24.33,6.524 19.6075,8.5 12.83,8.5 C6.0525,8.5 1.33,6.524 1.33,4.75 C1.33,2.976 6.053,1 12.83,1 Z" id="Shape"></path>
        </g>
    </g>
</svg>