<?xml version="1.0" encoding="UTF-8"?>
<svg width="24px" height="24px" viewBox="0 0 24 24" version="1.1" xmlns="http://www.w3.org/2000/svg" xmlns:xlink="http://www.w3.org/1999/xlink">
    <!-- Generator: Sketch 63.1 (92452) - https://sketch.com -->
    <title>exclamation-square</title>
    <desc>Created with Sketch.</desc>
    <g id="Page-1" stroke="none" stroke-width="1" fill="none" fill-rule="evenodd">
        <g id="exclamation-square" fill="#F5B42A" fill-rule="nonzero">
            <path d="M21.4285714,0 L2.57142857,0 C1.15126779,0 0,1.15126779 0,2.57142857 L0,21.4285714 C0,22.8487322 1.15126779,24 2.57142857,24 L21.4285714,24 C22.8487322,24 24,22.8487322 24,21.4285714 L24,2.57142857 C24,1.15126779 22.8487322,0 21.4285714,0 L21.4285714,0 Z M12,18.8571429 C11.0532261,18.8571429 10.2857143,18.089631 10.2857143,17.1428571 C10.2857143,16.1960833 11.0532261,15.4285714 12,15.4285714 C12.9467739,15.4285714 13.7142857,16.1960833 13.7142857,17.1428571 C13.7142857,18.089631 12.9467739,18.8571429 12,18.8571429 Z M14.0485714,6.08517857 L13.3628571,12.9423214 C13.3190939,13.380526 12.9503844,13.7142857 12.51,13.7142857 L11.4921429,13.7142857 C11.0517584,13.7142857 10.6830489,13.380526 10.6392857,12.9423214 L9.95357143,6.08517857 C9.92954492,5.84460709 10.0082335,5.60507655 10.1702439,5.42562037 C10.3322544,5.24616419 10.5625182,5.14347359 10.8042857,5.14285714 L13.1957143,5.14285714 C13.4378552,5.14285714 13.6686944,5.24529783 13.8311793,5.42482738 C13.9936643,5.60435693 14.0726342,5.84423624 14.0485714,6.08517857 Z" id="Shape" opacity="0.4"></path>
            <path d="M13.1957143,5.14285714 L10.8042857,5.14285714 C10.5621448,5.14285714 10.3313056,5.24529783 10.1688207,5.42482738 C10.0063357,5.60435693 9.92736582,5.84423624 9.95142857,6.08517857 L10.6371429,12.9423214 C10.6809061,13.380526 11.0496156,13.7142857 11.49,13.7142857 L12.5078571,13.7142857 C12.9482416,13.7142857 13.3169511,13.380526 13.3607143,12.9423214 L14.0464286,6.08517857 C14.0704551,5.84460709 13.9917665,5.60507655 13.8297561,5.42562037 C13.6677456,5.24616419 13.4374818,5.14347359 13.1957143,5.14285714 Z M12,15.4285714 C11.0532261,15.4285714 10.2857143,16.1960833 10.2857143,17.1428571 C10.2857143,18.089631 11.0532261,18.8571429 12,18.8571429 C12.9467739,18.8571429 13.7142857,18.089631 13.7142857,17.1428571 C13.7142857,16.1960833 12.9467739,15.4285714 12,15.4285714 Z" id="Shape"></path>
        </g>
    </g>
</svg>