<?xml version="1.0" encoding="UTF-8"?>
<svg width="346px" height="353px" viewBox="0 0 346 353" version="1.1" xmlns="http://www.w3.org/2000/svg" xmlns:xlink="http://www.w3.org/1999/xlink">
    <!-- Generator: Sketch 53 (72520) - https://sketchapp.com -->
    <title>Combined Shape</title>
    <desc>Created with Sketch.</desc>
    <g id="Page-1" stroke="none" stroke-width="1" fill="none" fill-rule="evenodd">
        <g id="006-frame-1" fill="#FFFFFF" fill-rule="nonzero">
            <path d="M324,295.6 L324,238.4 L345.6,238.4 L345.6,295.2 C345.6,310.8 339.6,324.8 329.2,335.2 C318.8,345.6 304.8,352 289.2,352.4 L235.6,352.4 L235.6,330.8 L288.8,330.8 C298.4,330.8 307.2,326.8 313.6,320.4 C320,314 324,305.2 324,295.6 Z M345.6,56.4 L346,56.4 L346,114 L324.4,114 L324.4,56.8 C324.4,47.2 320.4,38.4 314,32 C307.6,25.6 298.8,21.6 289.2,21.6 L235.6,21.6 L235.6,0 L289.2,0 C304.8,0 318.8,6 329.2,16.4 C339.2,26.8 345.6,40.8 345.6,56.4 Z M32.4,320 C38.8,326.4 47.6,330.4 57.2,330.4 L110.8,330.4 L110.8,352 L57.2,352 C41.6,352 27.6,345.6 16.8,335.6 C6.8,325.2 0.4,311.2 0.4,295.6 L0.4,238.4 L22,238.4 L22,295.2 C22,304.8 26,313.6 32.4,320 Z M22.4,56.4 L22.4,113.6 L0.8,113.6 L0.8,56.4 C0.8,40.8 6.8,26.8 17.2,16.4 C27.6,6.4 41.6,0 57.2,0 L111.2,0 L111.2,21.2 L57.6,21.2 C48,21.2 39.2,25.2 32.8,31.6 C26.4,38 22.4,46.8 22.4,56.4 Z M248.4,267.2 C242.4,267.2 237.6,262.4 237.6,256.4 C237.6,238.4 230.4,222.4 218.8,210.8 C207.2,199.2 190.8,192 173.2,192 C155.6,192 139.2,199.2 127.6,210.8 C116,222.4 108.8,238.8 108.8,256.4 C108.8,262.4 104,267.2 98,267.2 C92,267.2 87.2,262.4 87.2,256.4 C87.2,232.8 96.8,211.2 112.4,195.6 C119.6,188.4 128,182.8 137.6,178.4 C136.8,177.6 136,177.2 135.2,176.4 C125.6,166.8 119.6,153.2 119.6,138.4 C119.6,123.6 125.6,110 135.2,100.4 C144.8,90.8 158.4,84.8 173.2,84.8 C188,84.8 201.6,90.8 211.2,100.4 C220.8,110 226.8,123.6 226.8,138.4 C226.8,153.2 220.8,166.8 211.2,176.4 C210.4,177.2 209.6,177.6 208.8,178.4 C218,182.4 226.8,188.4 234,195.6 C249.6,211.2 259.2,232.8 259.2,256.4 C259.2,262.4 254.4,267.2 248.4,267.2 Z M196,161.2 C202,155.2 205.6,147.2 205.6,138.4 C205.6,129.6 202,121.6 196,115.6 C190,109.6 182,106 173.2,106 C164.4,106 156.4,109.6 150.4,115.6 C144.4,121.6 140.8,129.6 140.8,138.4 C140.8,147.2 144.4,155.2 150.4,161.2 C156.4,167.2 164.4,170.8 173.2,170.8 C182,170.8 190,167.2 196,161.2 Z" id="Combined-Shape"></path>
        </g>
    </g>
</svg>