<?xml version="1.0" encoding="UTF-8"?>
<svg width="34px" height="35px" viewBox="0 0 34 35" version="1.1" xmlns="http://www.w3.org/2000/svg" xmlns:xlink="http://www.w3.org/1999/xlink">
    <!-- Generator: Sketch 53 (72520) - https://sketchapp.com -->
    <title>kyc</title>
    <desc>Created with Sketch.</desc>
    <g id="kyc" stroke="none" stroke-width="1" fill="none" fill-rule="evenodd">
        <g id="face-scan" transform="translate(2.000000, 2.500000)" fill="#FFFFFF" fill-rule="nonzero">
            <path d="M0.483870968,8.31212194 C0.751008065,8.31212194 0.967741935,8.09538806 0.967741935,7.82825097 L0.967741935,0.967741935 L7.82825097,0.967741935 C8.09538806,0.967741935 8.31212194,0.751008065 8.31212194,0.483870968 C8.31212194,0.216733871 8.09538806,0 7.82825097,0 L0.483870968,0 C0.216733871,0 0,0.216733871 0,0.483870968 L0,7.82825097 C0,8.09538806 0.216733871,8.31212194 0.483870968,8.31212194 Z" id="Path"></path>
            <path d="M0.483870968,30 L7.82825097,30 C8.09538806,30 8.31212194,29.7832661 8.31212194,29.516129 C8.31212194,29.2489919 8.09538806,29.0322581 7.82825097,29.0322581 L0.967741935,29.0322581 L0.967741935,22.171749 C0.967741935,21.9046119 0.751008065,21.6878781 0.483870968,21.6878781 C0.216733871,21.6878781 0,21.9046119 0,22.171749 L0,29.516129 C0,29.7832661 0.216733871,30 0.483870968,30 Z" id="Path"></path>
            <path d="M29.516129,21.6878781 C29.2489919,21.6878781 29.0322581,21.9046119 29.0322581,22.171749 L29.0322581,29.0322581 L22.171749,29.0322581 C21.9046119,29.0322581 21.6878781,29.2489919 21.6878781,29.516129 C21.6878781,29.7832661 21.9046119,30 22.171749,30 L29.516129,30 C29.7832661,30 30,29.7832661 30,29.516129 L30,22.171749 C30,21.9046119 29.7832661,21.6878781 29.516129,21.6878781 Z" id="Path"></path>
            <path d="M22.171749,0.967741935 L29.0322581,0.967741935 L29.0322581,7.82825097 C29.0322581,8.09538806 29.2489919,8.31212194 29.516129,8.31212194 C29.7832661,8.31212194 30,8.09538806 30,7.82825097 L30,0.483870968 C30,0.216733871 29.7832661,0 29.516129,0 L22.171749,0 C21.9046119,0 21.6878781,0.216733871 21.6878781,0.483870968 C21.6878781,0.751008065 21.9046119,0.967741935 22.171749,0.967741935 Z" id="Path"></path>
            <path d="M15,14.3636593 C17.7416205,14.3636593 19.9640877,12.141192 19.9640877,9.39957161 C19.9640877,6.65795113 17.7416205,4.43548387 15,4.43548387 C12.2583795,4.43548387 10.0359123,6.65795113 10.0359123,9.39957161 C10.0390625,12.1399319 12.2596396,14.3608241 15,14.3636593 Z M15,5.40322581 C17.2070313,5.40322581 18.9963458,7.19254032 18.9963458,9.39957161 C18.9963458,11.6069178 17.2070313,13.3962323 15,13.3962323 C12.7929687,13.3962323 11.0036542,11.6069178 11.0036542,9.39957161 C11.0061744,7.1934854 12.7939138,5.40574597 15,5.40322581 Z" id="Shape"></path>
            <path d="M6.93548387,25.5645161 L23.0645161,25.5645161 C23.3316532,25.5645161 23.5483871,25.3477823 23.5483871,25.0806452 C23.5483871,20.359438 19.7212072,16.5322581 15,16.5322581 C10.2787928,16.5322581 6.4516129,20.359438 6.4516129,25.0806452 C6.4516129,25.3477823 6.66834677,25.5645161 6.93548387,25.5645161 Z M15,17.5 C18.9969758,17.5047253 22.3053176,20.608304 22.5655242,24.5967742 L7.43447581,24.5967742 C7.69468242,20.608304 11.0030242,17.5047253 15,17.5 Z" id="Shape"></path>
        </g>
    </g>
</svg>