<?xml version="1.0" encoding="UTF-8"?>
<svg width="200px" height="40px" viewBox="0 0 200 40" version="1.1" xmlns="http://www.w3.org/2000/svg" xmlns:xlink="http://www.w3.org/1999/xlink">
    <!-- Generator: Sketch 53 (72520) - https://sketchapp.com -->
    <title>Group 5@1x</title>
    <desc>Created with Sketch.</desc>
    <g id="Page-2" stroke="none" stroke-width="1" fill="none" fill-rule="evenodd">
        <g id="Artboard" transform="translate(-19.000000, -72.000000)">
            <g id="Group-5" transform="translate(19.000000, 72.000000)">
                <g id="Group-3-Copy-2">
                    <path d="M25.1659165,0.805562628 L27.1346736,2.99208896 C27.4917563,3.3886695 27.459737,3.99963429 27.0631565,4.35671701 C26.666576,4.71379973 26.0556112,4.68178042 25.6985284,4.28519988 L23.7297713,2.09867356 C23.3726886,1.70209302 23.4047079,1.09112823 23.8012884,0.734045503 C24.197869,0.37696278 24.8088338,0.408982088 25.1659165,0.805562628 Z M30.8014716,3.4281055 L31.9981972,6.11599503 C32.2152529,6.60351016 31.9960022,7.1746777 31.5084871,7.39173342 C31.0209719,7.60878915 30.4498044,7.38953847 30.2327487,6.90202333 L29.0360232,4.21413381 C28.8189674,3.72661867 29.0382181,3.15545113 29.5257332,2.93839541 C30.0132484,2.72133969 30.5844159,2.94059036 30.8014716,3.4281055 Z M35.3069902,7.62881057 L35.512232,10.5639048 C35.5494577,11.0962566 35.1480786,11.5579903 34.6157268,11.595216 C34.083375,11.6324417 33.6216412,11.2310626 33.5844156,10.6987108 L33.3791738,7.76361663 C33.3419481,7.23126482 33.7433272,6.76953105 34.275679,6.73230539 C34.8080308,6.69507972 35.2697646,7.09645877 35.3069902,7.62881057 Z M38.2825564,13.0095602 L37.6708259,15.8875261 C37.5598734,16.4095163 37.0467721,16.7427282 36.5247819,16.6317758 C36.0027917,16.5208233 35.6695798,16.007722 35.7805322,15.4857318 L36.3922627,12.6077659 C36.5032152,12.0857757 37.0163166,11.7525638 37.5383067,11.8635162 C38.0602969,11.9744686 38.3935088,12.48757 38.2825564,13.0095602 Z M39.6100326,19.0211531 L38.0508716,21.5163323 C37.7680793,21.9688946 37.1719565,22.1065204 36.7193941,21.823728 C36.2668318,21.5409357 36.129206,20.9448129 36.4119983,20.4922506 L37.9711593,17.9970714 C38.2539517,17.5445091 38.8500744,17.4068833 39.3026368,17.6896756 C39.7551992,17.972468 39.8928249,18.5685907 39.6100326,19.0211531 Z M38.7713629,25.1577648 L36.5848366,27.1265219 C36.1882561,27.4836047 35.5772913,27.4515854 35.2202085,27.0550048 C34.8631258,26.6584243 34.8951451,26.0474595 35.2917257,25.6903768 L37.478252,23.7216196 C37.8748325,23.3645369 38.4857973,23.3965562 38.8428801,23.7931367 C39.1999628,24.1897173 39.1679435,24.8006821 38.7713629,25.1577648 Z M36.1915278,30.6728951 L33.5470408,31.9626976 C33.0673977,32.1966351 32.4889264,31.9974514 32.2549889,31.5178084 C32.0210513,31.0381654 32.220235,30.4596941 32.699878,30.2257565 L35.344365,28.935954 C35.8240081,28.7020165 36.4024794,28.9012002 36.6364169,29.3808432 C36.8703545,29.8604862 36.6711708,30.4389575 36.1915278,30.6728951 Z M32.0520603,35.2992286 L29.1169661,35.5044703 C28.5846143,35.541696 28.1228805,35.140317 28.0856548,34.6079652 C28.0484292,34.0756134 28.4498082,33.6138796 28.98216,33.5766539 L31.9172542,33.3714121 C32.449606,33.3341865 32.9113398,33.7355655 32.9485655,34.2679173 C32.9857911,34.8002691 32.5844121,35.2620029 32.0520603,35.2992286 Z M26.6713107,38.2747948 L23.7933447,37.6630642 C23.2713546,37.5521118 22.9381426,37.0390104 23.0490951,36.5170202 C23.1600475,35.99503 23.6731489,35.6618181 24.1951391,35.7727705 L27.073105,36.3845011 C27.5950952,36.4954535 27.9283071,37.0085549 27.8173547,37.5305451 C27.7064022,38.0525353 27.1933008,38.3857472 26.6713107,38.2747948 Z M20.6617514,39.4206769 L18.0638888,38.0393688 C17.5927023,37.7888345 17.4138283,37.2037641 17.6643626,36.7325776 C17.914897,36.2613911 18.4999673,36.0825171 18.9711538,36.3330514 L21.5690164,37.7143595 C22.040203,37.9648938 22.2190769,38.5499642 21.9685426,39.0211507 C21.7180083,39.4923372 21.1329379,39.6712112 20.6617514,39.4206769 Z M14.4491245,38.7586886 L12.4425071,36.6068549 C12.0785575,36.2165667 12.0999091,35.6051361 12.4901973,35.2411865 C12.8804855,34.8772369 13.491916,34.8985885 13.8558656,35.2888767 L15.8624831,37.4407104 C16.2264327,37.8309986 16.2050811,38.4424292 15.8147929,38.8063788 C15.4245047,39.1703284 14.8130742,39.1489768 14.4491245,38.7586886 Z M8.72221238,36.1278801 L7.62002186,33.3998629 C7.4201124,32.9050696 7.65916297,32.3419017 8.15395626,32.1419923 C8.64874955,31.9420828 9.21191741,32.1811334 9.41182688,32.6759267 L10.5140174,35.4039439 C10.7139269,35.8987372 10.4748763,36.4619051 9.980083,36.6618145 C9.4852897,36.861724 8.92212185,36.6226734 8.72221238,36.1278801 Z M4.33773155,32.0323308 L4.03018149,29.1061874 C3.97439969,28.575459 4.35941995,28.0999986 4.89014831,28.0442168 C5.42087666,27.988435 5.89633708,28.3734553 5.95211888,28.9041836 L6.25966894,31.830327 C6.31545074,32.3610554 5.93043048,32.8365158 5.39970213,32.8922976 C4.86897377,32.9480794 4.39351335,32.5630591 4.33773155,32.0323308 Z M1.34730707,26.6560534 L1.8582254,23.7584916 C1.95089306,23.2329472 2.45205294,22.8820312 2.97759732,22.9746989 C3.50314171,23.0673666 3.85405763,23.5685264 3.76138998,24.0940708 L3.25047165,26.9916327 C3.157804,27.517177 2.65664412,27.868093 2.13109973,27.7754253 C1.60555534,27.6827577 1.25463942,27.1815978 1.34730707,26.6560534 Z M0.121327076,20.5749286 L1.5477637,18.0015688 C1.80648321,17.5348265 2.39458623,17.3661907 2.86132858,17.6249102 C3.32807092,17.8836297 3.49670675,18.4717327 3.23798724,18.938475 L1.81155061,21.5118348 C1.55283111,21.9785772 0.964728084,22.147213 0.497985742,21.8884935 C0.0312433997,21.629774 -0.137392429,21.041671 0.121327076,20.5749286 Z M0.821994125,14.3628838 L3.07589711,12.4716347 C3.48469807,12.1286099 4.09417322,12.1819321 4.43719796,12.5907331 C4.7802227,12.999534 4.72690053,13.6090092 4.31809957,13.9520339 L2.06419658,15.8432831 C1.65539562,16.1863078 1.04592047,16.1329856 0.702895733,15.7241847 C0.359870997,15.3153837 0.413193163,14.7059086 0.821994125,14.3628838 Z M3.45277109,8.87939921 L6.14066062,7.68267369 C6.62817575,7.46561797 7.19934329,7.68486865 7.41639901,8.17238378 C7.63345474,8.65989892 7.41420406,9.23106646 6.92668892,9.44812218 L4.2387994,10.6448477 C3.75128426,10.8619034 3.18011672,10.6426527 2.963061,10.1551376 C2.74600528,9.66762247 2.96525595,9.09645494 3.45277109,8.87939921 Z M10.6019698,6.02635174 L7.66687556,6.23159352 C7.13452376,6.26881918 6.67278999,5.86744014 6.63556432,5.33508833 C6.59833866,4.80273653 6.9997177,4.34100276 7.53206951,4.30377709 L10.4671637,4.09853531 C10.9995155,4.06130965 11.4612493,4.46268869 11.4984749,4.9950405 C11.5357006,5.5273923 11.1343216,5.98912608 10.6019698,6.02635174 Z M15.3889907,3.79639336 L12.5110248,3.18466282 C11.9890346,3.07371038 11.6558227,2.56060901 11.7667751,2.03861882 C11.8777276,1.51662864 12.3908289,1.18341671 12.9128191,1.29436915 L15.790785,1.90609969 C16.3127752,2.01705213 16.6459872,2.5301535 16.5350347,3.05214369 C16.4240823,3.57413387 15.9109809,3.9073458 15.3889907,3.79639336 Z M20.6373637,3.20092051 L18.0395011,1.81961245 C17.5683145,1.56907813 17.3894406,0.984007775 17.6399749,0.512821242 C17.8905092,0.0416347093 18.4755796,-0.137239249 18.9467661,0.113295075 L21.5446287,1.49460313 C22.0158153,1.74513745 22.1946892,2.33020781 21.9441549,2.80139434 C21.6936206,3.27258087 21.1085502,3.45145483 20.6373637,3.20092051 Z" id="Combined-Shape" fill="#0061FF"></path>
                    <path d="M23.7087141,5.10665859 L25.6774713,7.29318492 C26.034554,7.68976546 26.0025347,8.30073025 25.6059542,8.65781297 C25.2093736,9.0148957 24.5984088,8.98287639 24.2413261,8.58629585 L22.272569,6.39976952 C21.9154862,6.00318898 21.9475055,5.39222419 22.3440861,5.03514147 C22.7406666,4.67805874 23.3516314,4.71007805 23.7087141,5.10665859 Z M17.3465031,4.78160016 L20.0343926,5.97832568 C20.5219077,6.1953814 20.7411584,6.76654894 20.5241027,7.25406407 C20.307047,7.74157921 19.7358794,7.96082989 19.2483643,7.74377416 L16.5604748,6.54704864 C16.0729596,6.32999292 15.853709,5.75882538 16.0707647,5.27131024 C16.2878204,4.78379511 16.8589879,4.56454443 17.3465031,4.78160016 Z M29.30931,7.86394095 L30.2185188,10.6621978 C30.3834262,11.1697308 30.1056734,11.7148515 29.5981404,11.8797589 C29.0906074,12.0446664 28.5454867,11.7669135 28.3805793,11.2593806 L27.4713705,8.46112369 C27.306463,7.95359071 27.5842159,7.40847003 28.0917489,7.24356257 C28.5992819,7.07865511 29.1444026,7.35640797 29.30931,7.86394095 Z M33.3216457,12.8341185 L33.0140957,15.7602619 C32.9583139,16.2909902 32.4828534,16.6760105 31.9521251,16.6202287 C31.4213967,16.5644469 31.0363765,16.0889864 31.0921583,15.5582581 L31.3997083,12.6321147 C31.4554901,12.1013864 31.9309505,11.7163661 32.4616789,11.7721479 C32.9924073,11.8279297 33.3774275,12.3033901 33.3216457,12.8341185 Z M34.9950204,18.9657963 L33.5238897,21.5138694 C33.2570638,21.9760254 32.6661072,22.1343717 32.2039513,21.8675458 C31.7417953,21.6007199 31.5834489,21.0097634 31.8502748,20.5476074 L33.3214055,17.9995343 C33.5882314,17.5373783 34.179188,17.379032 34.6413439,17.6458579 C35.1034999,17.9126837 35.2618462,18.5036403 34.9950204,18.9657963 Z M33.9650263,25.2234839 L31.5846868,26.9529017 C31.1529535,27.2665743 30.5486825,27.1708672 30.2350099,26.7391339 C29.9213373,26.3074005 30.0170444,25.7031296 30.4487777,25.389457 L32.8291172,23.6600391 C33.2608505,23.3463665 33.8651214,23.4420736 34.1787941,23.8738069 C34.4924667,24.3055403 34.3967596,24.9098112 33.9650263,25.2234839 Z M30.5489338,30.6094873 L27.6709679,31.2212178 C27.1489777,31.3321703 26.6358764,30.9989584 26.5249239,30.4769682 C26.4139715,29.954978 26.7471834,29.4418766 27.2691736,29.3309242 L30.1471395,28.7191936 C30.6691297,28.6082412 31.1822311,28.9414531 31.2931835,29.4634433 C31.4041359,29.9854335 31.070924,30.4985349 30.5489338,30.6094873 Z M25.2131059,33.8572095 L22.33514,33.245479 C21.8131498,33.1345266 21.4799379,32.6214252 21.5908903,32.099435 C21.7018428,31.5774448 22.2149441,31.2442329 22.7369343,31.3551853 L25.6149002,31.9669159 C26.1368904,32.0778683 26.4701024,32.5909697 26.3591499,33.1129599 C26.2481975,33.6349501 25.7350961,33.968162 25.2131059,33.8572095 Z M18.9994854,35.0151053 L16.6191459,33.2856874 C16.1874126,32.9720148 16.0917055,32.3677439 16.4053781,31.9360105 C16.7190507,31.5042772 17.3233217,31.4085701 17.755055,31.7222427 L20.1353945,33.4516606 C20.5671278,33.7653332 20.6628349,34.3696041 20.3491623,34.8013375 C20.0354897,35.2330708 19.4312187,35.3287779 18.9994854,35.0151053 Z M12.8834729,33.2212993 L11.4123422,30.6732262 C11.1455164,30.2110702 11.3038627,29.6201136 11.7660187,29.3532878 C12.2281746,29.0864619 12.8191312,29.2448082 13.0859571,29.7069642 L14.5570878,32.2550373 C14.8239137,32.7171933 14.6655673,33.3081498 14.2034113,33.5749757 C13.7412554,33.8418016 13.1502988,33.6834553 12.8834729,33.2212993 Z M8.00073074,29.3886743 L7.69318068,26.4625309 C7.63739888,25.9318025 8.02241914,25.4563421 8.55314749,25.4005603 C9.08387585,25.3447785 9.55933627,25.7297988 9.61511807,26.2605271 L9.92266813,29.1866705 C9.97844993,29.7173989 9.59342967,30.1928593 9.06270131,30.2486411 C8.53197296,30.3044229 8.05651254,29.9194026 8.00073074,29.3886743 Z M4.9709517,23.7834059 L5.88016047,20.9851491 C6.04506793,20.4776161 6.59018862,20.1998632 7.0977216,20.3647707 C7.60525458,20.5296782 7.88300744,21.0747988 7.71809998,21.5823318 L6.80889121,24.3805887 C6.64398374,24.8881217 6.09886306,25.1658745 5.59133008,25.0009671 C5.0837971,24.8360596 4.80604424,24.2909389 4.9709517,23.7834059 Z M4.75646661,17.6094346 L6.72522376,15.4229082 C7.08230648,15.0263277 7.69327127,14.9943084 8.08985181,15.3513911 C8.48643235,15.7084738 8.51845166,16.3194386 8.16136894,16.7160192 L6.19261179,18.9025455 C5.83552907,19.299126 5.22456428,19.3311453 4.82798374,18.9740626 C4.4314032,18.6169799 4.39938389,18.0060151 4.75646661,17.6094346 Z M7.07096549,11.3867845 L9.75885501,10.190059 C10.2463702,9.9730033 10.8175377,10.192254 11.0345934,10.6797691 C11.2516491,11.1672842 11.0323985,11.7384518 10.5448833,11.9555075 L7.85699379,13.152233 C7.36947866,13.3692888 6.79831112,13.1500381 6.5812554,12.6625229 C6.36419967,12.1750078 6.58345035,11.6038403 7.07096549,11.3867845 Z M11.5135843,6.9449712 L14.4558457,6.9449712 C14.9894975,6.9449712 15.4221077,7.37758142 15.4221077,7.91123318 C15.4221077,8.44488493 14.9894975,8.87749516 14.4558457,8.87749516 L11.5135843,8.87749516 C10.9799326,8.87749516 10.5473223,8.44488493 10.5473223,7.91123318 C10.5473223,7.37758142 10.9799326,6.9449712 11.5135843,6.9449712 Z" id="Combined-Shape" fill="#61A7FF"></path>
                    <path d="M15.8734315,9.92164721 L18.5663256,10.4940395 C19.0883158,10.604992 19.4215277,11.1180933 19.3105753,11.6400835 C19.1996229,12.1620737 18.6865215,12.4952856 18.1645313,12.3843332 L15.4716372,11.8119409 C14.949647,11.7009884 14.616435,11.1878871 14.7273875,10.6658969 C14.8383399,10.1439067 15.3514413,9.81069477 15.8734315,9.92164721 Z M22.3974355,9.48347545 L24.2395888,11.529394 C24.5966715,11.9259746 24.5646522,12.5369394 24.1680717,12.8940221 C23.7714912,13.2511048 23.1605264,13.2190855 22.8034436,12.822505 L20.9612903,10.7765864 C20.6042075,10.3800058 20.6362269,9.76904105 21.0328074,9.41195833 C21.4293879,9.0548756 22.0403527,9.08689491 22.3974355,9.48347545 Z M27.9546698,12.9772995 L28.2424425,15.715273 C28.2982243,16.2460013 27.913204,16.7214618 27.3824756,16.7772436 C26.8517473,16.8330254 26.3762869,16.4480051 26.3205051,15.9172767 L26.0327325,13.1793033 C25.9769507,12.6485749 26.3619709,12.1731145 26.8926993,12.1173327 C27.4234276,12.0615509 27.898888,12.4465711 27.9546698,12.9772995 Z M30.3874943,19.0446667 L29.0109668,21.4288823 C28.7441409,21.8910383 28.1531843,22.0493846 27.6910283,21.7825587 C27.2288724,21.5157328 27.070526,20.9247763 27.3373519,20.4626203 L28.7138794,18.0784047 C28.9807053,17.6162488 29.5716618,17.4579024 30.0338178,17.7247283 C30.4959738,17.9915542 30.6543201,18.5825107 30.3874943,19.0446667 Z M28.7881221,25.4153908 L26.2730812,26.5351591 C25.785566,26.7522149 25.2143985,26.5329642 24.9973428,26.045449 C24.780287,25.5579339 24.9995377,24.9867664 25.4870529,24.7697107 L28.0020938,23.6499423 C28.4896089,23.4328866 29.0607764,23.6521373 29.2778321,24.1396524 C29.4948879,24.6271675 29.2756372,25.1983351 28.7881221,25.4153908 Z M23.7459895,29.6350146 L21.0530953,29.0626223 C20.5311051,28.9516699 20.1978932,28.4385685 20.3088456,27.9165783 C20.4197981,27.3945881 20.9328994,27.0613762 21.4548896,27.1723286 L24.1477838,27.7447209 C24.669774,27.8556734 25.0029859,28.3687748 24.8920335,28.8907649 C24.781081,29.4127551 24.2679796,29.7459671 23.7459895,29.6350146 Z M17.2219855,30.0299282 L15.3798321,27.9840096 C15.0227494,27.5874291 15.0547687,26.9764643 15.4513492,26.6193816 C15.8479298,26.2622988 16.4588946,26.2943182 16.8159773,26.6908987 L18.6581307,28.7368173 C19.0152134,29.1333978 18.9831941,29.7443626 18.5866135,30.1014453 C18.190033,30.4585281 17.5790682,30.4265087 17.2219855,30.0299282 Z M11.6221464,26.5625393 L11.3343738,23.8245659 C11.278592,23.2938375 11.6636123,22.8183771 12.1943406,22.7625953 C12.725069,22.7068135 13.2005294,23.0918337 13.2563112,23.6225621 L13.5440838,26.3605356 C13.5998656,26.8912639 13.2148453,27.3667244 12.684117,27.4225062 C12.1533886,27.478288 11.6779282,27.0932677 11.6221464,26.5625393 Z M9.19663553,20.4626203 L10.573163,18.0784047 C10.8399889,17.6162488 11.4309455,17.4579024 11.8931014,17.7247283 C12.3552574,17.9915542 12.5136038,18.5825107 12.2467779,19.0446667 L10.8702504,21.4288823 C10.6034245,21.8910383 10.0124679,22.0493846 9.55031196,21.7825587 C9.08815598,21.5157328 8.92980965,20.9247763 9.19663553,20.4626203 Z M10.7886942,14.1244481 L13.3037351,13.0046797 C13.7912502,12.787624 14.3624178,13.0068747 14.5794735,13.4943898 C14.7965292,13.9819049 14.5772785,14.5530725 14.0897634,14.7701282 L11.5747225,15.8898965 C11.0872074,16.1069523 10.5160398,15.8877016 10.2989841,15.4001864 C10.0819284,14.9126713 10.3011791,14.3415038 10.7886942,14.1244481 Z" id="Combined-Shape" fill="#BEDAFF"></path>
                </g>
                <path d="M64.012,29.0055 C62.4206587,30.5761745 60.4780115,31.3615 58.184,31.3615 C55.8899885,31.3615 53.9525079,30.5710079 52.3715,28.99 C50.7904921,27.4089921 50,25.4715115 50,23.1775 C50,20.8834885 50.7904921,18.9460079 52.3715,17.365 C53.9525079,15.7839921 55.8899885,14.9935 58.184,14.9935 C60.4780115,14.9935 62.4206587,15.7839921 64.012,17.365 C65.6033413,18.9460079 66.399,20.8834885 66.399,23.1775 C66.399,25.4715115 65.6033413,27.4141587 64.012,29.0055 Z M55.177,26.2465 C55.983004,27.052504 56.9853273,27.4555 58.184,27.4555 C59.3826727,27.4555 60.384996,27.052504 61.191,26.2465 C61.997004,25.440496 62.4,24.4175062 62.4,23.1775 C62.4,21.9374938 61.997004,20.914504 61.191,20.1085 C60.384996,19.302496 59.3826727,18.8995 58.184,18.8995 C56.9853273,18.8995 55.9881706,19.302496 55.1925,20.1085 C54.3968294,20.914504 53.999,21.9374938 53.999,23.1775 C53.999,24.4175062 54.3916627,25.440496 55.177,26.2465 Z M86.766,14.9935 C88.5433422,14.9935 89.9641614,15.5721609 91.0285,16.7295 C92.0928387,17.8868391 92.625,19.4368236 92.625,21.3795 L92.625,30.9275 L88.626,30.9275 L88.626,21.6585 C88.626,20.7284953 88.398669,20.0051692 87.944,19.4885 C87.4893311,18.9718307 86.8486708,18.7135 86.022,18.7135 C85.1126621,18.7135 84.4048359,19.0131637 83.8985,19.6125 C83.3921642,20.2118363 83.139,21.0798276 83.139,22.2165 L83.139,30.9275 L79.14,30.9275 L79.14,21.6585 C79.14,20.7284953 78.912669,20.0051692 78.458,19.4885 C78.0033311,18.9718307 77.3626708,18.7135 76.536,18.7135 C75.6473289,18.7135 74.9395027,19.0131637 74.4125,19.6125 C73.8854974,20.2118363 73.622,21.0798276 73.622,22.2165 L73.622,30.9275 L69.623,30.9275 L69.623,15.4275 L73.622,15.4275 L73.622,17.0705 C74.5520047,15.6858264 75.9883236,14.9935 77.931,14.9935 C79.8323429,14.9935 81.2376621,15.7374926 82.147,17.2255 C83.1803385,15.7374926 84.7199898,14.9935 86.766,14.9935 Z M105.056,14.9935 C106.750675,14.9935 108.150828,15.5618276 109.2565,16.6985 C110.362172,17.8351723 110.915,19.4058233 110.915,21.4105 L110.915,30.9275 L106.916,30.9275 L106.916,21.9065 C106.916,20.8731615 106.637003,20.0826694 106.079,19.535 C105.520997,18.9873306 104.777005,18.7135 103.847,18.7135 C102.813662,18.7135 101.987003,19.0338301 101.367,19.6745 C100.746997,20.3151699 100.437,21.2761603 100.437,22.5575 L100.437,30.9275 L96.4380001,30.9275 L96.4380001,15.4275 L100.437,15.4275 L100.437,17.1635 C101.408338,15.7168261 102.94799,14.9935 105.056,14.9935 Z M116.712,13.5675 C116.050663,13.5675 115.477169,13.3246691 114.9915,12.839 C114.505831,12.3533309 114.263,11.7798366 114.263,11.1185 C114.263,10.4571634 114.505831,9.87850248 114.9915,9.3825 C115.477169,8.88649752 116.050663,8.6385 116.712,8.6385 C117.394003,8.6385 117.977831,8.88649752 118.4635,9.3825 C118.949169,9.87850248 119.192,10.4571634 119.192,11.1185 C119.192,11.7798366 118.949169,12.3533309 118.4635,12.839 C117.977831,13.3246691 117.394003,13.5675 116.712,13.5675 Z M114.728,30.9275 L114.728,15.4275 L118.727,15.4275 L118.727,30.9275 L114.728,30.9275 Z M126.353,19.8295 C126.353,20.2428354 126.626831,20.5786654 127.1745,20.837 C127.72217,21.0953346 128.388663,21.3226657 129.174,21.519 C129.959337,21.7153343 130.744663,21.9633318 131.53,22.263 C132.315337,22.5626682 132.981831,23.0638298 133.5295,23.7665 C134.07717,24.4691702 134.351,25.3474947 134.351,26.4015 C134.351,27.9928413 133.756839,29.217329 132.5685,30.075 C131.380161,30.932671 129.897342,31.3615 128.12,31.3615 C124.937318,31.3615 122.767339,30.1318456 121.61,27.6725 L125.082,25.7195 C125.536669,27.0628401 126.549326,27.7345 128.12,27.7345 C129.546007,27.7345 130.259,27.2901711 130.259,26.4015 C130.259,25.9881646 129.98517,25.6523346 129.4375,25.394 C128.889831,25.1356654 128.223337,24.9031677 127.438,24.6965 C126.652663,24.4898323 125.867337,24.2315015 125.082,23.9215 C124.296663,23.6114984 123.63017,23.12067 123.0825,22.449 C122.534831,21.77733 122.261,20.9351717 122.261,19.9225 C122.261,18.393159 122.824161,17.1893377 123.9505,16.311 C125.076839,15.4326623 126.476992,14.9935 128.151,14.9935 C129.411673,14.9935 130.558662,15.2776638 131.592,15.846 C132.625339,16.4143362 133.441664,17.2254947 134.041,18.2795 L130.631,20.1395 C130.134998,19.0854947 129.308339,18.5585 128.151,18.5585 C127.634331,18.5585 127.205502,18.6721655 126.8645,18.8995 C126.523498,19.1268345 126.353,19.4368314 126.353,19.8295 Z M145.728,19.2715 L142.225,19.2715 L142.225,25.7195 C142.225,26.256836 142.359332,26.6494988 142.628,26.8975 C142.896668,27.1455012 143.289331,27.2849998 143.806,27.316 C144.322669,27.3470002 144.96333,27.3418335 145.728,27.3005 L145.728,30.9275 C142.97932,31.2375015 141.041839,30.9791708 139.9155,30.1525 C138.789161,29.3258292 138.226,27.8481773 138.226,25.7195 L138.226,19.2715 L135.529,19.2715 L135.529,15.4275 L138.226,15.4275 L138.226,12.2965 L142.225,11.0875 L142.225,15.4275 L145.728,15.4275 L145.728,19.2715 Z M160.267,15.4275 L164.266,15.4275 L164.266,30.9275 L160.267,30.9275 L160.267,29.0985 C159.068328,30.6071742 157.384011,31.3615 155.214,31.3615 C153.147323,31.3615 151.375174,30.5710079 149.8975,28.99 C148.419826,27.4089921 147.681,25.4715115 147.681,23.1775 C147.681,20.8834885 148.419826,18.9460079 149.8975,17.365 C151.375174,15.7839921 153.147323,14.9935 155.214,14.9935 C157.384011,14.9935 159.068328,15.7478258 160.267,17.2565 L160.267,15.4275 Z M152.889,26.3395 C153.695004,27.145504 154.717994,27.5485 155.958,27.5485 C157.198006,27.5485 158.226163,27.1403374 159.0425,26.324 C159.858838,25.5076626 160.267,24.4588397 160.267,23.1775 C160.267,21.8961603 159.858838,20.8473374 159.0425,20.031 C158.226163,19.2146626 157.198006,18.8065 155.958,18.8065 C154.717994,18.8065 153.695004,19.2146626 152.889,20.031 C152.082996,20.8473374 151.68,21.8961603 151.68,23.1775 C151.68,24.4588397 152.082996,25.5128292 152.889,26.3395 Z M175.674,31.3615 C173.338655,31.3615 171.390841,30.5761745 169.8305,29.0055 C168.270159,27.4348255 167.49,25.4921782 167.49,23.1775 C167.49,20.8628218 168.270159,18.9201745 169.8305,17.3495 C171.390841,15.7788255 173.338655,14.9935 175.674,14.9935 C177.182674,14.9935 178.556994,15.355163 179.797,16.0785 C181.037006,16.8018369 181.97733,17.7731606 182.618,18.9925 L179.177,21.0075 C178.866999,20.3668301 178.396837,19.8605019 177.7665,19.4885 C177.136164,19.1164981 176.428337,18.9305 175.643,18.9305 C174.444328,18.9305 173.452337,19.3283294 172.667,20.124 C171.881663,20.9196706 171.489,21.9374938 171.489,23.1775 C171.489,24.3968394 171.881663,25.4043294 172.667,26.2 C173.452337,26.9956706 174.444328,27.3935 175.643,27.3935 C176.449004,27.3935 177.167164,27.2126685 177.7975,26.851 C178.427837,26.4893315 178.897999,25.9881699 179.208,25.3475 L182.68,27.3315 C181.997997,28.5508394 181.037006,29.5273297 179.797,30.261 C178.556994,30.9946703 177.182674,31.3615 175.674,31.3615 Z M199.482,30.9275 L194.832,30.9275 L189.19,23.8905 L189.19,30.9275 L185.191,30.9275 L185.191,9.2275 L189.19,9.2275 L189.19,22.2475 L194.522,15.4275 L199.296,15.4275 L193.065,23.0845 L199.482,30.9275 Z" id="omnistack-copy-2" fill="#132661" fill-rule="nonzero"></path>
            </g>
        </g>
    </g>
</svg>