<?xml version="1.0" encoding="UTF-8"?>
<svg width="203px" height="45px" viewBox="0 0 203 45" version="1.1" xmlns="http://www.w3.org/2000/svg" xmlns:xlink="http://www.w3.org/1999/xlink">
    <!-- Generator: Sketch 53 (72520) - https://sketchapp.com -->
    <title>Group 6@3x</title>
    <desc>Created with Sketch.</desc>
    <g id="Page-2" stroke="none" stroke-width="1" fill="none" fill-rule="evenodd">
        <g id="Artboard" transform="translate(-69.000000, -191.000000)">
            <g id="Group-6" transform="translate(69.000000, 191.500000)">
                <g id="Group-3" transform="translate(-0.000000, 0.000000)">
                    <path d="M29.4623532,1.48222964 L30.8897378,3.06750085 C31.4848625,3.72845378 31.4314982,4.74670589 30.7705452,5.34183059 C30.1095923,5.93695528 29.0913402,5.88359095 28.4962155,5.22263801 L27.0688309,3.63736681 C26.4737062,2.97641387 26.5270705,1.95816176 27.1880235,1.36303707 C27.8489764,0.767912372 28.8672285,0.821276704 29.4623532,1.48222964 Z M35.601386,4.60024814 L36.4690337,6.54901675 C36.8307852,7.36152399 36.4653755,8.31344881 35.6528683,8.67520034 C34.840361,9.03695187 33.8884362,8.67154217 33.5266847,7.85903493 L32.659037,5.91026631 C32.2972855,5.09775907 32.6626952,4.14583426 33.4752024,3.78408273 C34.2877096,3.4223312 35.2396345,3.7877409 35.601386,4.60024814 Z M40.4108994,9.44509032 L40.5597034,11.5730868 C40.6217448,12.4603202 39.9527945,13.2298594 39.0655612,13.2919008 C38.1783278,13.3539422 37.4087886,12.6849919 37.3467472,11.7977586 L37.1979431,9.66976211 C37.1359017,8.78252874 37.804852,8.01298949 38.6920854,7.95094809 C39.5793187,7.88890669 40.348858,8.55785695 40.4108994,9.44509032 Z M43.5158302,15.4966069 L43.0723144,17.5831844 C42.8873978,18.4531488 42.0322478,19.0084897 41.1622834,18.823573 C40.292319,18.6386564 39.7369781,17.7835064 39.9218947,16.913542 L40.3654105,14.8269646 C40.5503271,13.9570002 41.4054771,13.4016593 42.2754415,13.5865759 C43.1454059,13.7714925 43.7007468,14.6266426 43.5158302,15.4966069 Z M44.7255267,22.2045483 L43.5951068,24.0135984 C43.1237966,24.7678523 42.1302807,24.9972236 41.3760268,24.5259134 C40.6217729,24.0546033 40.3924016,23.0610873 40.8637118,22.3068334 L41.9941318,20.4977833 C42.4654419,19.7435294 43.4589578,19.5141582 44.2132117,19.9854683 C44.9674656,20.4567785 45.1968369,21.4502944 44.7255267,22.2045483 Z M43.5890666,28.963252 L42.0037954,30.3906366 C41.3428425,30.9857613 40.3245904,30.932397 39.7294657,30.271444 C39.134341,29.6104911 39.1877053,28.592239 39.8486583,27.9971143 L41.4339295,26.5697297 C42.0948824,25.974605 43.1131345,26.0279693 43.7082592,26.6889223 C44.3033839,27.3498752 44.2500196,28.3681273 43.5890666,28.963252 Z M40.5434271,34.9792931 L38.6261261,35.9144232 C37.8267388,36.3043105 36.8626412,35.9723451 36.472754,35.1729578 C36.0828667,34.3735704 36.4148321,33.4094729 37.2142194,33.0195856 L39.1315205,32.0844554 C39.9309078,31.6945682 40.8950053,32.0265336 41.2848926,32.8259209 C41.6747798,33.6253083 41.3428144,34.5894058 40.5434271,34.9792931 Z M35.7403695,39.9122266 L33.612373,40.0610306 C32.7251396,40.123072 31.9556004,39.4541217 31.893559,38.5668883 C31.8315176,37.679655 32.5004678,36.9101157 33.3877012,36.8480743 L35.5156977,36.6992703 C36.402931,36.6372289 37.1724703,37.3061792 37.2345117,38.1934125 C37.2965531,39.0806459 36.6276028,39.8501852 35.7403695,39.9122266 Z M29.6888528,43.0171573 L27.6022754,42.5736416 C26.732311,42.388725 26.1769701,41.5335749 26.3618867,40.6636106 C26.5468034,39.7936462 27.4019534,39.2383053 28.2719178,39.4232219 L30.3584952,39.8667376 C31.2284596,40.0516543 31.7838005,40.9068043 31.5988839,41.7767687 C31.4139672,42.6467331 30.5588172,43.202074 29.6888528,43.0171573 Z M22.9971748,44.0797685 L21.1136774,43.0782952 C20.3283839,42.6607472 20.0302672,41.6856515 20.4478152,40.900358 C20.8653631,40.1150645 21.8404588,39.8169479 22.6257523,40.2344958 L24.5092498,41.2359692 C25.2945433,41.6535172 25.5926599,42.6286128 25.175112,43.4139063 C24.757564,44.1991998 23.7824683,44.4973165 22.9971748,44.0797685 Z M16.1403623,43.0985397 L14.6855283,41.5384212 C14.0789591,40.8879553 14.1145443,39.8689269 14.7650102,39.2623577 C15.4154761,38.6557884 16.4345045,38.6913736 17.0410738,39.3418396 L18.4959078,40.901958 C19.1024771,41.5524239 19.0668918,42.5714523 18.4164259,43.1780216 C17.76596,43.7845908 16.7469316,43.7490056 16.1403623,43.0985397 Z M9.91173781,39.9327677 L9.11262972,37.9549058 C8.77945465,37.1302686 9.17786345,36.1916763 10.0025007,35.8585012 C10.8271379,35.5253261 11.7657302,35.9237349 12.0989053,36.7483721 L12.8980134,38.7262341 C13.2311885,39.5508713 12.8327797,40.4894636 12.0081424,40.8226387 C11.1835052,41.1558138 10.2449129,40.757405 9.91173781,39.9327677 Z M5.2075814,35.249318 L4.98460203,33.127811 C4.89163443,32.2432834 5.53332065,31.4508669 6.41784833,31.3578993 C7.302376,31.2649316 8.0947925,31.9066179 8.1877601,32.7911455 L8.41073947,34.9126525 C8.50370707,35.7971802 7.86202085,36.5895967 6.97749318,36.6825643 C6.0929655,36.7755319 5.30054901,36.1338457 5.2075814,35.249318 Z M2.0812829,29.197106 L2.45170794,27.0963211 C2.60615062,26.2204332 3.44139859,25.6355863 4.31728651,25.790029 C5.19317443,25.9444716 5.77802135,26.7797196 5.62357868,27.6556075 L5.25315364,29.7563924 C5.09871096,30.6322803 4.26346299,31.2171272 3.38757507,31.0626845 C2.51168715,30.9082419 1.92684023,30.0729939 2.0812829,29.197106 Z M0.96616939,22.4078192 L2.00036179,20.5420868 C2.43155142,19.7642001 3.41170143,19.4831466 4.18958811,19.9143362 C4.96747479,20.3455258 5.24852829,21.3256758 4.81733866,22.1035625 L3.78314626,23.969295 C3.35195663,24.7471817 2.37180662,25.0282352 1.59391994,24.5970456 C0.816033254,24.1658559 0.534979762,23.1857059 0.96616939,22.4078192 Z M2.01746626,15.5579779 L3.65158677,14.1867879 C4.33290662,13.6150927 5.34867605,13.703961 5.92037129,14.3852809 C6.49206652,15.0666007 6.40319822,16.0823701 5.72187836,16.6540654 L4.08775785,18.0252553 C3.406438,18.5969505 2.39066857,18.5080822 1.81897334,17.8267624 C1.2472781,17.1454425 1.33614641,16.1296731 2.01746626,15.5579779 Z M5.11748662,9.58407379 L7.06625524,8.71642611 C7.87876248,8.35467458 8.83068729,8.72008428 9.19243882,9.53259152 C9.55419035,10.3450988 9.18878065,11.2970236 8.37627341,11.6587751 L6.4275048,12.5264228 C5.61499756,12.8881743 4.66307274,12.5227646 4.30132121,11.7102574 C3.93956968,10.8977501 4.30497938,9.94582532 5.11748662,9.58407379 Z M12.1816557,7.76171765 L10.0536592,7.91052166 C9.16642584,7.97256306 8.39688659,7.3036128 8.33484519,6.41637943 C8.27280379,5.52914606 8.94175405,4.75960681 9.82898742,4.69756541 L11.9569839,4.5487614 C12.8442173,4.48672 13.6137565,5.15567027 13.6757979,6.04290363 C13.7378393,6.930137 13.0688891,7.69967625 12.1816557,7.76171765 Z M17.2974391,5.14940154 L15.2108617,4.70588582 C14.3408973,4.52096918 13.7855564,3.66581915 13.970473,2.79585477 C14.1553896,1.92589039 15.0105397,1.37054947 15.880504,1.55546611 L17.9670815,1.99898184 C18.8370459,2.18389847 19.3923868,3.0390485 19.2074702,3.90901288 C19.0225535,4.77897726 18.1674035,5.33431818 17.2974391,5.14940154 Z M22.9703897,4.29947614 L21.0868922,3.29800278 C20.3015987,2.88045481 20.0034821,1.90535915 20.42103,1.12006564 C20.838578,0.334772142 21.8136737,0.0366554792 22.5989672,0.454203441 L24.4824646,1.45567681 C25.2677581,1.87322477 25.5658748,2.84832044 25.1483268,3.63361394 C24.7307789,4.41890744 23.7556832,4.71702411 22.9703897,4.29947614 Z" id="Combined-Shape" fill="#0061FF"></path>
                    <path d="M27.6527666,6.87292085 L29.0202586,8.39167456 C29.5904121,9.02489412 29.5392869,10.0004207 28.9060673,10.5705741 C28.2728478,11.1407276 27.2973212,11.0896024 26.7271678,10.4563828 L25.3596758,8.93762912 C24.7895223,8.30440957 24.8406475,7.32888301 25.4738671,6.75872956 C26.1070866,6.18857612 27.0826132,6.2397013 27.6527666,6.87292085 Z M20.9099273,6.22531153 L22.7769262,7.05655298 C23.5553409,7.40312553 23.9054181,8.31510787 23.5588456,9.09352256 C23.212273,9.87193724 22.3002907,10.2220145 21.521876,9.87544192 L19.6548771,9.04420046 C18.8764624,8.69762792 18.5263852,7.78564557 18.8729578,7.00723089 C19.2195303,6.2288162 20.1315127,5.87873898 20.9099273,6.22531153 Z M33.4657463,10.0730299 L34.0972796,12.0166896 C34.3605871,12.8270667 33.9170995,13.6974601 33.1067224,13.9607676 C32.2963453,14.2240751 31.4259519,13.7805875 31.1626444,12.9702103 L30.5311111,11.0265507 C30.2678036,10.2161735 30.7112912,9.34578017 31.5216683,9.08247268 C32.3320455,8.81916518 33.2024388,9.26265276 33.4657463,10.0730299 Z M37.4929003,15.543184 L37.2792771,17.5756732 C37.1902104,18.4230863 36.4310435,19.0378476 35.5836303,18.9487809 C34.7362171,18.8597142 34.1214559,18.1005472 34.2105226,17.2531341 L34.4241458,15.2206449 C34.5132125,14.3732317 35.2723795,13.7584705 36.1197926,13.8475372 C36.9672058,13.9366039 37.581967,14.6957708 37.4929003,15.543184 Z M38.9779927,22.1355113 L37.9561503,23.9053942 C37.5301098,24.6433179 36.5865304,24.8961493 35.8486066,24.4701088 C35.1106829,24.0440683 34.8578515,23.1004889 35.283892,22.3625651 L36.3057344,20.5926823 C36.7317748,19.8547585 37.6753543,19.6019272 38.413278,20.0279676 C39.1512018,20.4540081 39.4040331,21.3975875 38.9779927,22.1355113 Z M37.5852514,28.7361624 L35.9318758,29.9374101 C35.2425278,30.4382507 34.2776893,30.2854353 33.7768487,29.5960874 C33.2760081,28.9067394 33.4288235,27.9419009 34.1181715,27.4410603 L35.7715471,26.2398126 C36.4608951,25.7389719 37.4257336,25.8917873 37.9265742,26.5811353 C38.4274148,27.2704833 38.2745994,28.2353218 37.5852514,28.7361624 Z M33.701937,34.2925448 L31.7029117,34.7174508 C30.8694508,34.8946083 30.0501826,34.3625694 29.873025,33.5291084 C29.6958674,32.6956475 30.2279064,31.8763793 31.0613673,31.6992217 L33.0603926,31.2743157 C33.8938535,31.0971582 34.7131217,31.6291971 34.8902793,32.4626581 C35.0674369,33.296119 34.5353979,34.1153872 33.701937,34.2925448 Z M27.8687077,37.4910919 L25.8696824,37.0661859 C25.0362214,36.8890283 24.5041824,36.0697601 24.68134,35.2362992 C24.8584976,34.4028383 25.6777658,33.8707993 26.5112268,34.0479569 L28.5102521,34.4728628 C29.343713,34.6500204 29.875752,35.4692886 29.6985944,36.3027495 C29.5214368,37.1362105 28.7021686,37.6682495 27.8687077,37.4910919 Z M21.2197429,38.4206156 L19.5663672,37.2193679 C18.8770192,36.7185273 18.7242038,35.7536888 19.2250445,35.0643408 C19.7258851,34.3749928 20.6907236,34.2221774 21.3800715,34.7230181 L23.0334472,35.9242658 C23.7227952,36.4251064 23.8756106,37.3899449 23.37477,38.0792929 C22.8739293,38.7686408 21.9090908,38.9214562 21.2197429,38.4206156 Z M14.800549,36.2241769 L13.7787067,34.454294 C13.3526662,33.7163702 13.6054976,32.7727908 14.3434213,32.3467503 C15.0813451,31.9207098 16.0249245,32.1735412 16.450965,32.9114649 L17.4728073,34.6813478 C17.8988478,35.4192716 17.6460165,36.362851 16.9080927,36.7888915 C16.170169,37.214932 15.2265895,36.9621006 14.800549,36.2241769 Z M9.80329204,31.9157506 L9.58966882,29.8832614 C9.5006021,29.0358482 10.1153634,28.2766813 10.9627765,28.1876145 C11.8101897,28.0985478 12.5693566,28.7133091 12.6584234,29.5607223 L12.8720466,31.5932115 C12.9611133,32.4406246 12.346352,33.1997916 11.4989389,33.2888583 C10.6515257,33.377925 9.89235875,32.7631637 9.80329204,31.9157506 Z M6.85573813,25.8230768 L7.48727143,23.8794172 C7.75057893,23.06904 8.6209723,22.6255525 9.43134945,22.88886 C10.2417266,23.1521675 10.6852142,24.0225608 10.4219067,24.832938 L9.79037336,26.7765976 C9.52706587,27.5869748 8.65667249,28.0304623 7.84629535,27.7671548 C7.03591821,27.5038474 6.59243063,26.633454 6.85573813,25.8230768 Z M6.92889638,19.2466306 L8.29638836,17.7278769 C8.86654181,17.0946574 9.84206837,17.0435322 10.4752879,17.6136856 C11.1085075,18.1838391 11.1596327,19.1593656 10.5894792,19.7925852 L9.22198722,21.3113389 C8.65183378,21.9445585 7.67630722,21.9956836 7.04308766,21.4255302 C6.40986811,20.8553768 6.35874293,19.8798502 6.92889638,19.2466306 Z M9.66983315,12.7474373 L11.536832,11.9161959 C12.3152467,11.5696233 13.2272291,11.9197005 13.5738016,12.6981152 C13.9203742,13.4765299 13.5702969,14.3885122 12.7918822,14.7350848 L10.9248834,15.5663262 C10.1464687,15.9128988 9.23448634,15.5628216 8.88791379,14.7844069 C8.54134124,14.0059922 8.89141846,13.0940099 9.66983315,12.7474373 Z M14.6039147,8.24217947 L16.6475994,8.24217947 C17.4996803,8.24217947 18.1904284,8.93292756 18.1904284,9.78500852 C18.1904284,10.6370895 17.4996803,11.3278376 16.6475994,11.3278376 L14.6039147,11.3278376 C13.7518337,11.3278376 13.0610856,10.6370895 13.0610856,9.78500852 C13.0610856,8.93292756 13.7518337,8.24217947 14.6039147,8.24217947 Z" id="Combined-Shape" fill="#61A7FF"></path>
                    <path d="M19.4664611,12.0365293 L21.1812077,12.4010099 C21.9733059,12.5693756 22.478941,13.3479854 22.3105753,14.1400836 C22.1422096,14.9321817 21.3635998,15.4378169 20.5715016,15.2694512 L18.8567551,14.9049706 C18.0646569,14.7366049 17.5590218,13.9579951 17.7273875,13.1658969 C17.8957531,12.3737987 18.6743629,11.8681636 19.4664611,12.0365293 Z M26.1035732,12.0204826 L27.2765959,13.3232563 C27.818454,13.9250506 27.769866,14.8521641 27.1680717,15.3940221 C26.5662774,15.9358802 25.6391639,15.8872922 25.0973059,15.2854979 L23.9242832,13.9827241 C23.3824251,13.3809298 23.4310131,12.4538164 24.0328074,11.9119583 C24.6346017,11.3701003 25.5617152,11.4186883 26.1035732,12.0204826 Z M31.504195,15.9222963 L31.6874392,17.6657478 C31.7720857,18.4711058 31.1878336,19.192597 30.3824756,19.2772436 C29.5771176,19.3618901 28.8556264,18.777638 28.7709799,17.97228 L28.5877357,16.2288285 C28.5030892,15.4234705 29.0873413,14.7019792 29.8926993,14.6173327 C30.6980573,14.5326862 31.4195485,15.1169382 31.504195,15.9222963 Z M33.570507,22.2276795 L32.6939795,23.7458696 C32.2890824,24.4471719 31.3923306,24.6874558 30.6910283,24.2825587 C29.989726,23.8776617 29.7494421,22.9809099 30.1543392,22.2796076 L31.0308667,20.7614175 C31.4357638,20.0601152 32.3325155,19.8198313 33.0338178,20.2247283 C33.7351201,20.6296254 33.975404,21.5263772 33.570507,22.2276795 Z M31.5347176,28.5755319 L29.9332222,29.2885636 C29.1934385,29.6179365 28.3267157,29.2852328 27.9973428,28.5454491 C27.6679698,27.8056653 28.0006735,26.9389425 28.7404573,26.6095696 L30.3419527,25.8965379 C31.0817364,25.567165 31.9484592,25.8998686 32.2778321,26.6396524 C32.6072051,27.3794362 32.2745014,28.2461589 31.5347176,28.5755319 Z M26.1529598,32.5201326 L24.4382133,32.155652 C23.6461151,31.9872863 23.14048,31.2086765 23.3088456,30.4165783 C23.4772113,29.6244801 24.2558211,29.118845 25.0479193,29.2872107 L26.7626658,29.6516913 C27.554764,29.820057 28.0603991,30.5986668 27.8920335,31.390765 C27.7236678,32.1828632 26.945058,32.6884983 26.1529598,32.5201326 Z M19.5158477,32.4929211 L18.342825,31.1901474 C17.800967,30.5883531 17.8495549,29.6612396 18.4513492,29.1193816 C19.0531436,28.5775235 19.980257,28.6261115 20.522115,29.2279058 L21.6951378,30.5306796 C22.2369958,31.1324739 22.1884079,32.0595873 21.5866135,32.6014454 C20.9848192,33.1433034 20.0577058,33.0947154 19.5158477,32.4929211 Z M14.0726212,28.6175426 L13.8893771,26.8740911 C13.8047305,26.0687331 14.3889826,25.3472418 15.1943406,25.2625953 C15.9996986,25.1779488 16.7211899,25.7622008 16.8058364,26.5675588 L16.9890805,28.3110104 C17.0737271,29.1163684 16.489475,29.8378596 15.684117,29.9225062 C14.878759,30.0071527 14.1572677,29.4229006 14.0726212,28.6175426 Z M12.0136228,22.2796076 L12.8901503,20.7614175 C13.2950474,20.0601152 14.1917991,19.8198313 14.8931014,20.2247283 C15.5944037,20.6296254 15.8346877,21.5263772 15.4297906,22.2276795 L14.5532631,23.7458696 C14.148366,24.4471719 13.2516143,24.6874558 12.550312,24.2825587 C11.8490097,23.8776617 11.6087257,22.9809099 12.0136228,22.2796076 Z M14.0420986,15.964307 L15.643594,15.2512753 C16.3833778,14.9219024 17.2501005,15.254606 17.5794735,15.9943898 C17.9088464,16.7341736 17.5761427,17.6008963 16.836359,17.9302693 L15.2348636,18.643301 C14.4950798,18.9726739 13.6283571,18.6399702 13.2989841,17.9001865 C12.9696112,17.1604027 13.3023149,16.2936799 14.0420986,15.964307 Z" id="Combined-Shape" fill="#BEDAFF"></path>
                </g>
                <path d="M67.012,31.5055 C65.4206587,33.0761745 63.4780115,33.8615 61.184,33.8615 C58.8899885,33.8615 56.9525079,33.0710079 55.3715,31.49 C53.7904921,29.9089921 53,27.9715115 53,25.6775 C53,23.3834885 53.7904921,21.4460079 55.3715,19.865 C56.9525079,18.2839921 58.8899885,17.4935 61.184,17.4935 C63.4780115,17.4935 65.4206587,18.2839921 67.012,19.865 C68.6033413,21.4460079 69.399,23.3834885 69.399,25.6775 C69.399,27.9715115 68.6033413,29.9141587 67.012,31.5055 Z M58.177,28.7465 C58.983004,29.552504 59.9853273,29.9555 61.184,29.9555 C62.3826727,29.9555 63.384996,29.552504 64.191,28.7465 C64.997004,27.940496 65.4,26.9175062 65.4,25.6775 C65.4,24.4374938 64.997004,23.414504 64.191,22.6085 C63.384996,21.802496 62.3826727,21.3995 61.184,21.3995 C59.9853273,21.3995 58.9881706,21.802496 58.1925,22.6085 C57.3968294,23.414504 56.999,24.4374938 56.999,25.6775 C56.999,26.9175062 57.3916627,27.940496 58.177,28.7465 Z M89.766,17.4935 C91.5433422,17.4935 92.9641614,18.0721609 94.0285,19.2295 C95.0928387,20.3868391 95.625,21.9368236 95.625,23.8795 L95.625,33.4275 L91.626,33.4275 L91.626,24.1585 C91.626,23.2284953 91.398669,22.5051692 90.944,21.9885 C90.4893311,21.4718307 89.8486708,21.2135 89.022,21.2135 C88.1126621,21.2135 87.4048359,21.5131637 86.8985,22.1125 C86.3921642,22.7118363 86.139,23.5798276 86.139,24.7165 L86.139,33.4275 L82.14,33.4275 L82.14,24.1585 C82.14,23.2284953 81.912669,22.5051692 81.458,21.9885 C81.0033311,21.4718307 80.3626708,21.2135 79.536,21.2135 C78.6473289,21.2135 77.9395027,21.5131637 77.4125,22.1125 C76.8854974,22.7118363 76.622,23.5798276 76.622,24.7165 L76.622,33.4275 L72.623,33.4275 L72.623,17.9275 L76.622,17.9275 L76.622,19.5705 C77.5520047,18.1858264 78.9883236,17.4935 80.931,17.4935 C82.8323429,17.4935 84.2376621,18.2374926 85.147,19.7255 C86.1803385,18.2374926 87.7199898,17.4935 89.766,17.4935 Z M108.056,17.4935 C109.750675,17.4935 111.150828,18.0618276 112.2565,19.1985 C113.362172,20.3351723 113.915,21.9058233 113.915,23.9105 L113.915,33.4275 L109.916,33.4275 L109.916,24.4065 C109.916,23.3731615 109.637003,22.5826694 109.079,22.035 C108.520997,21.4873306 107.777005,21.2135 106.847,21.2135 C105.813662,21.2135 104.987003,21.5338301 104.367,22.1745 C103.746997,22.8151699 103.437,23.7761603 103.437,25.0575 L103.437,33.4275 L99.4380001,33.4275 L99.4380001,17.9275 L103.437,17.9275 L103.437,19.6635 C104.408338,18.2168261 105.94799,17.4935 108.056,17.4935 Z M119.712,16.0675 C119.050663,16.0675 118.477169,15.8246691 117.9915,15.339 C117.505831,14.8533309 117.263,14.2798366 117.263,13.6185 C117.263,12.9571634 117.505831,12.3785025 117.9915,11.8825 C118.477169,11.3864975 119.050663,11.1385 119.712,11.1385 C120.394003,11.1385 120.977831,11.3864975 121.4635,11.8825 C121.949169,12.3785025 122.192,12.9571634 122.192,13.6185 C122.192,14.2798366 121.949169,14.8533309 121.4635,15.339 C120.977831,15.8246691 120.394003,16.0675 119.712,16.0675 Z M117.728,33.4275 L117.728,17.9275 L121.727,17.9275 L121.727,33.4275 L117.728,33.4275 Z M129.353,22.3295 C129.353,22.7428354 129.626831,23.0786654 130.1745,23.337 C130.72217,23.5953346 131.388663,23.8226657 132.174,24.019 C132.959337,24.2153343 133.744663,24.4633318 134.53,24.763 C135.315337,25.0626682 135.981831,25.5638298 136.5295,26.2665 C137.07717,26.9691702 137.351,27.8474947 137.351,28.9015 C137.351,30.4928413 136.756839,31.717329 135.5685,32.575 C134.380161,33.432671 132.897342,33.8615 131.12,33.8615 C127.937318,33.8615 125.767339,32.6318456 124.61,30.1725 L128.082,28.2195 C128.536669,29.5628401 129.549326,30.2345 131.12,30.2345 C132.546007,30.2345 133.259,29.7901711 133.259,28.9015 C133.259,28.4881646 132.98517,28.1523346 132.4375,27.894 C131.889831,27.6356654 131.223337,27.4031677 130.438,27.1965 C129.652663,26.9898323 128.867337,26.7315015 128.082,26.4215 C127.296663,26.1114984 126.63017,25.62067 126.0825,24.949 C125.534831,24.27733 125.261,23.4351717 125.261,22.4225 C125.261,20.893159 125.824161,19.6893377 126.9505,18.811 C128.076839,17.9326623 129.476992,17.4935 131.151,17.4935 C132.411673,17.4935 133.558662,17.7776638 134.592,18.346 C135.625339,18.9143362 136.441664,19.7254947 137.041,20.7795 L133.631,22.6395 C133.134998,21.5854947 132.308339,21.0585 131.151,21.0585 C130.634331,21.0585 130.205502,21.1721655 129.8645,21.3995 C129.523498,21.6268345 129.353,21.9368314 129.353,22.3295 Z M148.728,21.7715 L145.225,21.7715 L145.225,28.2195 C145.225,28.756836 145.359332,29.1494988 145.628,29.3975 C145.896668,29.6455012 146.289331,29.7849998 146.806,29.816 C147.322669,29.8470002 147.96333,29.8418335 148.728,29.8005 L148.728,33.4275 C145.97932,33.7375015 144.041839,33.4791708 142.9155,32.6525 C141.789161,31.8258292 141.226,30.3481773 141.226,28.2195 L141.226,21.7715 L138.529,21.7715 L138.529,17.9275 L141.226,17.9275 L141.226,14.7965 L145.225,13.5875 L145.225,17.9275 L148.728,17.9275 L148.728,21.7715 Z M163.267,17.9275 L167.266,17.9275 L167.266,33.4275 L163.267,33.4275 L163.267,31.5985 C162.068328,33.1071742 160.384011,33.8615 158.214,33.8615 C156.147323,33.8615 154.375174,33.0710079 152.8975,31.49 C151.419826,29.9089921 150.681,27.9715115 150.681,25.6775 C150.681,23.3834885 151.419826,21.4460079 152.8975,19.865 C154.375174,18.2839921 156.147323,17.4935 158.214,17.4935 C160.384011,17.4935 162.068328,18.2478258 163.267,19.7565 L163.267,17.9275 Z M155.889,28.8395 C156.695004,29.645504 157.717994,30.0485 158.958,30.0485 C160.198006,30.0485 161.226163,29.6403374 162.0425,28.824 C162.858838,28.0076626 163.267,26.9588397 163.267,25.6775 C163.267,24.3961603 162.858838,23.3473374 162.0425,22.531 C161.226163,21.7146626 160.198006,21.3065 158.958,21.3065 C157.717994,21.3065 156.695004,21.7146626 155.889,22.531 C155.082996,23.3473374 154.68,24.3961603 154.68,25.6775 C154.68,26.9588397 155.082996,28.0128292 155.889,28.8395 Z M178.674,33.8615 C176.338655,33.8615 174.390841,33.0761745 172.8305,31.5055 C171.270159,29.9348255 170.49,27.9921782 170.49,25.6775 C170.49,23.3628218 171.270159,21.4201745 172.8305,19.8495 C174.390841,18.2788255 176.338655,17.4935 178.674,17.4935 C180.182674,17.4935 181.556994,17.855163 182.797,18.5785 C184.037006,19.3018369 184.97733,20.2731606 185.618,21.4925 L182.177,23.5075 C181.866999,22.8668301 181.396837,22.3605019 180.7665,21.9885 C180.136164,21.6164981 179.428337,21.4305 178.643,21.4305 C177.444328,21.4305 176.452337,21.8283294 175.667,22.624 C174.881663,23.4196706 174.489,24.4374938 174.489,25.6775 C174.489,26.8968394 174.881663,27.9043294 175.667,28.7 C176.452337,29.4956706 177.444328,29.8935 178.643,29.8935 C179.449004,29.8935 180.167164,29.7126685 180.7975,29.351 C181.427837,28.9893315 181.897999,28.4881699 182.208,27.8475 L185.68,29.8315 C184.997997,31.0508394 184.037006,32.0273297 182.797,32.761 C181.556994,33.4946703 180.182674,33.8615 178.674,33.8615 Z M202.482,33.4275 L197.832,33.4275 L192.19,26.3905 L192.19,33.4275 L188.191,33.4275 L188.191,11.7275 L192.19,11.7275 L192.19,24.7475 L197.522,17.9275 L202.296,17.9275 L196.065,25.5845 L202.482,33.4275 Z" id="omnistack" fill="#0061FF" fill-rule="nonzero"></path>
            </g>
        </g>
    </g>
</svg>